<?xml version="1.0" encoding="UTF-8"?>
<svg version="1.1" viewBox="0 0 2048 2048" width="512" height="512" xmlns="http://www.w3.org/2000/svg">
<path transform="translate(282,281)" d="m0 0h16l34 1 46 3 46 5 48 7 53 10 43 10 48 13 47 15 44 16 34 14 29 13 33 16 25 13 23 13 25 15 23 15 12 8 19 13 13 10 16 12 16 13 10 8 1 1159-5-2-11-9-18-13-15-11-23-16-22-14-21-13-24-14-27-15-29-15-29-14-34-15-45-18-34-12-34-11-43-12-51-12-43-8-40-6-45-5-44-3-22-1-45-1-1-6v-1154z" fill="#FE763E"/>
<path transform="translate(1757,281)" d="m0 0h7l2 1v1160l-3 1-44 1-52 3-42 4-44 6-44 8-41 9-39 10-40 12-44 15-41 16-28 12-35 16-38 19-23 13-25 14-23 14-15 10-14 9-16 11-18 13-21 16-12 9-2-1v-1157l8-7 25-20 19-14 17-12 27-18 19-12 17-10 21-12 32-17 24-12 36-16 29-12 35-13 35-12 47-14 48-12 43-9 39-7 48-7 38-4 46-3z" fill="#FE763E"/>
<path transform="translate(1938,429)" d="m0 0h58l1 1v1159l-1 1-73 1-57 2-69 4-48 4-75 8-65 9-72 12-75 15-60 14-50 13-52 15-48 15-41 14-38 14-28 11-41 17-16 7-2-1 15-13 13-11 14-11 19-14 16-11 21-14 19-12 18-11 19-11 27-15 23-12 23-11 38-17 33-13 36-13 31-10 35-10 28-7 42-9 33-6 36-5 37-4 48-3h133v-1085l1-1 19-2 49-3z" fill="#FE763E"/>
<path transform="translate(51,429)" d="m0 0h57l62 3 28 2 6 1v1086h135l46 3 45 5 40 6 42 8 37 9 34 9 35 11 35 12 38 15 30 13 28 13 30 15 22 12 26 15 23 14 20 13 19 13 14 10 19 14 11 9 17 14 12 11h-3l-18-8-36-15-41-16-30-11-36-12-40-13-59-17-49-13-56-13-43-9-57-11-49-8-58-8-32-4-69-7-52-4-79-4-33-1-70-1-1-1z" fill="#FE763E"/>
</svg>
